<mxfile host="Electron" agent="Mozilla/5.0 (Windows NT 10.0; Win64; x64) AppleWebKit/537.36 (KHTML, like Gecko) draw.io/24.7.17 Chrome/128.0.6613.36 Electron/32.0.1 Safari/537.36" version="24.7.17">
  <diagram name="Page-1" id="i_1V_3LCrrf7nx3eIYEb">
    <mxGraphModel dx="1384" dy="568" grid="1" gridSize="10" guides="1" tooltips="1" connect="1" arrows="1" fold="1" page="1" pageScale="1" pageWidth="1100" pageHeight="850" math="0" shadow="0">
      <root>
        <mxCell id="0" />
        <mxCell id="1" parent="0" />
        <mxCell id="FwODbE6UjJbPgK21mreN-81" value="" style="whiteSpace=wrap;html=1;fillColor=none;" vertex="1" parent="1">
          <mxGeometry x="470" y="550" width="210" height="140" as="geometry" />
        </mxCell>
        <mxCell id="FwODbE6UjJbPgK21mreN-1" value="&lt;font style=&quot;font-size: 18px;&quot;&gt;Communication Architecture for ERC and FERC&lt;/font&gt;" style="text;html=1;align=center;verticalAlign=middle;whiteSpace=wrap;rounded=0;" vertex="1" parent="1">
          <mxGeometry x="250" width="600" height="30" as="geometry" />
        </mxCell>
        <mxCell id="FwODbE6UjJbPgK21mreN-51" value="Battery (12V)" style="rounded=1;whiteSpace=wrap;html=1;" vertex="1" parent="1">
          <mxGeometry x="180" y="80" width="80" height="40" as="geometry" />
        </mxCell>
        <mxCell id="FwODbE6UjJbPgK21mreN-52" value="" style="whiteSpace=wrap;html=1;fillColor=none;" vertex="1" parent="1">
          <mxGeometry x="310" y="60" width="240" height="230" as="geometry" />
        </mxCell>
        <mxCell id="FwODbE6UjJbPgK21mreN-54" value="LED" style="rounded=1;whiteSpace=wrap;html=1;" vertex="1" parent="1">
          <mxGeometry x="340" y="80" width="80" height="40" as="geometry" />
        </mxCell>
        <mxCell id="FwODbE6UjJbPgK21mreN-56" value="Fuse" style="rounded=1;whiteSpace=wrap;html=1;" vertex="1" parent="1">
          <mxGeometry x="260" y="130" width="40" height="60" as="geometry" />
        </mxCell>
        <mxCell id="FwODbE6UjJbPgK21mreN-58" value="Voltage Regulator" style="rounded=1;whiteSpace=wrap;html=1;" vertex="1" parent="1">
          <mxGeometry x="340" y="130" width="80" height="40" as="geometry" />
        </mxCell>
        <mxCell id="FwODbE6UjJbPgK21mreN-59" value="ESC" style="rounded=1;whiteSpace=wrap;html=1;" vertex="1" parent="1">
          <mxGeometry x="340" y="180" width="80" height="40" as="geometry" />
        </mxCell>
        <mxCell id="FwODbE6UjJbPgK21mreN-60" value="Motor" style="rounded=1;whiteSpace=wrap;html=1;" vertex="1" parent="1">
          <mxGeometry x="340" y="230" width="80" height="40" as="geometry" />
        </mxCell>
        <mxCell id="FwODbE6UjJbPgK21mreN-64" value="" style="endArrow=classic;html=1;rounded=0;exitX=1;exitY=0.75;exitDx=0;exitDy=0;entryX=1;entryY=0.5;entryDx=0;entryDy=0;" edge="1" parent="1" source="FwODbE6UjJbPgK21mreN-59" target="FwODbE6UjJbPgK21mreN-60">
          <mxGeometry width="50" height="50" relative="1" as="geometry">
            <mxPoint x="440" y="200" as="sourcePoint" />
            <mxPoint x="430" y="250" as="targetPoint" />
            <Array as="points">
              <mxPoint x="440" y="210" />
              <mxPoint x="440" y="250" />
            </Array>
          </mxGeometry>
        </mxCell>
        <mxCell id="FwODbE6UjJbPgK21mreN-65" value="&lt;font style=&quot;font-size: 10px;&quot;&gt;Power&amp;nbsp;&lt;/font&gt;&lt;span style=&quot;font-size: 10px; background-color: initial;&quot;&gt;Distribution&amp;nbsp;&lt;/span&gt;&lt;span style=&quot;font-size: 10px; background-color: initial;&quot;&gt;Board&lt;/span&gt;" style="text;html=1;align=center;verticalAlign=middle;resizable=0;points=[];autosize=1;strokeColor=none;fillColor=none;" vertex="1" parent="1">
          <mxGeometry x="420" y="60" width="130" height="30" as="geometry" />
        </mxCell>
        <mxCell id="FwODbE6UjJbPgK21mreN-66" value="Buck (5V)" style="rounded=1;whiteSpace=wrap;html=1;" vertex="1" parent="1">
          <mxGeometry x="460" y="130" width="80" height="40" as="geometry" />
        </mxCell>
        <mxCell id="FwODbE6UjJbPgK21mreN-67" value="" style="whiteSpace=wrap;html=1;fillColor=none;" vertex="1" parent="1">
          <mxGeometry x="310" y="310" width="380" height="220" as="geometry" />
        </mxCell>
        <mxCell id="FwODbE6UjJbPgK21mreN-95" style="edgeStyle=orthogonalEdgeStyle;rounded=0;orthogonalLoop=1;jettySize=auto;html=1;entryX=1;entryY=0.5;entryDx=0;entryDy=0;" edge="1" parent="1" source="FwODbE6UjJbPgK21mreN-68" target="FwODbE6UjJbPgK21mreN-59">
          <mxGeometry relative="1" as="geometry" />
        </mxCell>
        <mxCell id="FwODbE6UjJbPgK21mreN-68" value="STM32H7" style="rounded=1;whiteSpace=wrap;html=1;" vertex="1" parent="1">
          <mxGeometry x="420" y="340" width="120" height="80" as="geometry" />
        </mxCell>
        <mxCell id="FwODbE6UjJbPgK21mreN-71" value="" style="edgeStyle=orthogonalEdgeStyle;rounded=0;orthogonalLoop=1;jettySize=auto;html=1;entryX=0;entryY=0.75;entryDx=0;entryDy=0;exitX=0.5;exitY=0;exitDx=0;exitDy=0;" edge="1" parent="1" source="FwODbE6UjJbPgK21mreN-72" target="FwODbE6UjJbPgK21mreN-68">
          <mxGeometry relative="1" as="geometry">
            <mxPoint x="420" y="400" as="targetPoint" />
            <mxPoint x="170" y="440" as="sourcePoint" />
            <Array as="points">
              <mxPoint x="380" y="400" />
            </Array>
          </mxGeometry>
        </mxCell>
        <mxCell id="FwODbE6UjJbPgK21mreN-72" value="Receiver" style="rounded=1;whiteSpace=wrap;html=1;" vertex="1" parent="1">
          <mxGeometry x="340" y="440" width="80" height="40" as="geometry" />
        </mxCell>
        <mxCell id="FwODbE6UjJbPgK21mreN-73" value="Transmitter" style="rounded=1;whiteSpace=wrap;html=1;" vertex="1" parent="1">
          <mxGeometry x="470" y="440" width="80" height="40" as="geometry" />
        </mxCell>
        <mxCell id="FwODbE6UjJbPgK21mreN-74" value="" style="edgeStyle=none;orthogonalLoop=1;jettySize=auto;html=1;rounded=0;exitX=0.75;exitY=1;exitDx=0;exitDy=0;entryX=0.5;entryY=0;entryDx=0;entryDy=0;" edge="1" parent="1" source="FwODbE6UjJbPgK21mreN-68" target="FwODbE6UjJbPgK21mreN-73">
          <mxGeometry width="100" relative="1" as="geometry">
            <mxPoint x="550" y="430" as="sourcePoint" />
            <mxPoint x="520" y="430" as="targetPoint" />
            <Array as="points">
              <mxPoint x="510" y="430" />
            </Array>
          </mxGeometry>
        </mxCell>
        <mxCell id="FwODbE6UjJbPgK21mreN-75" value="Servo" style="rounded=1;whiteSpace=wrap;html=1;" vertex="1" parent="1">
          <mxGeometry x="580" y="440" width="80" height="40" as="geometry" />
        </mxCell>
        <mxCell id="FwODbE6UjJbPgK21mreN-76" value="" style="edgeStyle=none;orthogonalLoop=1;jettySize=auto;html=1;rounded=0;exitX=1;exitY=0.75;exitDx=0;exitDy=0;entryX=0.5;entryY=0;entryDx=0;entryDy=0;" edge="1" parent="1" source="FwODbE6UjJbPgK21mreN-68" target="FwODbE6UjJbPgK21mreN-75">
          <mxGeometry width="100" relative="1" as="geometry">
            <mxPoint x="570" y="380" as="sourcePoint" />
            <mxPoint x="670" y="380" as="targetPoint" />
            <Array as="points">
              <mxPoint x="620" y="400" />
            </Array>
          </mxGeometry>
        </mxCell>
        <mxCell id="FwODbE6UjJbPgK21mreN-77" value="" style="edgeStyle=none;orthogonalLoop=1;jettySize=auto;html=1;rounded=0;exitX=1;exitY=0.75;exitDx=0;exitDy=0;" edge="1" parent="1">
          <mxGeometry width="100" relative="1" as="geometry">
            <mxPoint x="540" y="359.88" as="sourcePoint" />
            <mxPoint x="580" y="359.88" as="targetPoint" />
            <Array as="points" />
          </mxGeometry>
        </mxCell>
        <mxCell id="FwODbE6UjJbPgK21mreN-78" value="Relay" style="rounded=1;whiteSpace=wrap;html=1;" vertex="1" parent="1">
          <mxGeometry x="580" y="340" width="80" height="40" as="geometry" />
        </mxCell>
        <mxCell id="FwODbE6UjJbPgK21mreN-79" value="Microcontroller Board" style="text;html=1;align=center;verticalAlign=middle;resizable=0;points=[];autosize=1;strokeColor=none;fillColor=none;" vertex="1" parent="1">
          <mxGeometry x="520" y="310" width="140" height="30" as="geometry" />
        </mxCell>
        <mxCell id="FwODbE6UjJbPgK21mreN-82" value="LED" style="rounded=1;whiteSpace=wrap;html=1;" vertex="1" parent="1">
          <mxGeometry x="480" y="580" width="80" height="40" as="geometry" />
        </mxCell>
        <mxCell id="FwODbE6UjJbPgK21mreN-83" value="Fuel Pump" style="rounded=1;whiteSpace=wrap;html=1;" vertex="1" parent="1">
          <mxGeometry x="480" y="630" width="80" height="40" as="geometry" />
        </mxCell>
        <mxCell id="FwODbE6UjJbPgK21mreN-84" value="" style="edgeStyle=none;orthogonalLoop=1;jettySize=auto;html=1;rounded=0;exitX=1;exitY=0.5;exitDx=0;exitDy=0;entryX=0.5;entryY=1;entryDx=0;entryDy=0;" edge="1" parent="1" source="FwODbE6UjJbPgK21mreN-78" target="FwODbE6UjJbPgK21mreN-83">
          <mxGeometry width="100" relative="1" as="geometry">
            <mxPoint x="650" y="490" as="sourcePoint" />
            <mxPoint x="700" y="650" as="targetPoint" />
            <Array as="points">
              <mxPoint x="700" y="360" />
              <mxPoint x="700" y="540" />
              <mxPoint x="700" y="710" />
              <mxPoint x="520" y="710" />
            </Array>
          </mxGeometry>
        </mxCell>
        <mxCell id="FwODbE6UjJbPgK21mreN-85" value="" style="edgeStyle=none;orthogonalLoop=1;jettySize=auto;html=1;rounded=0;exitX=1;exitY=0.5;exitDx=0;exitDy=0;entryX=0;entryY=0.5;entryDx=0;entryDy=0;" edge="1" parent="1" target="FwODbE6UjJbPgK21mreN-86">
          <mxGeometry width="100" relative="1" as="geometry">
            <mxPoint x="660" y="370" as="sourcePoint" />
            <mxPoint x="770" y="530" as="targetPoint" />
            <Array as="points" />
          </mxGeometry>
        </mxCell>
        <mxCell id="FwODbE6UjJbPgK21mreN-86" value="Cooling System" style="rounded=1;whiteSpace=wrap;html=1;" vertex="1" parent="1">
          <mxGeometry x="730" y="340" width="120" height="60" as="geometry" />
        </mxCell>
        <mxCell id="FwODbE6UjJbPgK21mreN-88" value="Fuel System Board" style="text;html=1;align=center;verticalAlign=middle;resizable=0;points=[];autosize=1;strokeColor=none;fillColor=none;" vertex="1" parent="1">
          <mxGeometry x="470" y="550" width="130" height="30" as="geometry" />
        </mxCell>
        <mxCell id="FwODbE6UjJbPgK21mreN-98" style="edgeStyle=orthogonalEdgeStyle;rounded=0;orthogonalLoop=1;jettySize=auto;html=1;entryX=0.5;entryY=1;entryDx=0;entryDy=0;" edge="1" parent="1" source="FwODbE6UjJbPgK21mreN-90" target="FwODbE6UjJbPgK21mreN-72">
          <mxGeometry relative="1" as="geometry">
            <Array as="points">
              <mxPoint x="620" y="540" />
              <mxPoint x="380" y="540" />
            </Array>
          </mxGeometry>
        </mxCell>
        <mxCell id="FwODbE6UjJbPgK21mreN-101" style="edgeStyle=orthogonalEdgeStyle;rounded=0;orthogonalLoop=1;jettySize=auto;html=1;entryX=1;entryY=0.5;entryDx=0;entryDy=0;" edge="1" parent="1" source="FwODbE6UjJbPgK21mreN-90" target="FwODbE6UjJbPgK21mreN-82">
          <mxGeometry relative="1" as="geometry" />
        </mxCell>
        <mxCell id="FwODbE6UjJbPgK21mreN-90" value="Fuel Level Sensor" style="rounded=1;whiteSpace=wrap;html=1;" vertex="1" parent="1">
          <mxGeometry x="580" y="580" width="80" height="40" as="geometry" />
        </mxCell>
        <mxCell id="FwODbE6UjJbPgK21mreN-91" value="Buck (12V)" style="rounded=1;whiteSpace=wrap;html=1;" vertex="1" parent="1">
          <mxGeometry x="580" y="630" width="80" height="40" as="geometry" />
        </mxCell>
        <mxCell id="FwODbE6UjJbPgK21mreN-92" value="" style="edgeStyle=none;rounded=0;orthogonalLoop=1;jettySize=auto;html=1;" edge="1" parent="1" source="FwODbE6UjJbPgK21mreN-93" target="FwODbE6UjJbPgK21mreN-72">
          <mxGeometry relative="1" as="geometry" />
        </mxCell>
        <mxCell id="FwODbE6UjJbPgK21mreN-93" value="Transmitter" style="rounded=1;whiteSpace=wrap;html=1;" vertex="1" parent="1">
          <mxGeometry x="180" y="440" width="80" height="40" as="geometry" />
        </mxCell>
      </root>
    </mxGraphModel>
  </diagram>
</mxfile>
